<svg width="31" height="22" viewBox="0 0 31 22" fill="none" xmlns="http://www.w3.org/2000/svg">
<path d="M14.0074 10.0081C13.9704 9.81986 13.8617 9.65529 13.709 9.55667C13.0661 9.14057 12.1971 8.83448 11.259 8.52936C10.1596 10.021 9.62376 11.3409 9.40063 12.0055C9.29815 12.3103 9.04996 12.544 8.73617 12.6306C4.66517 13.7557 2.70083 14.6263 2.23296 14.8466C2.14901 15.4992 2.03401 16.2845 1.86743 17.2577C1.81836 17.5445 1.9382 17.8302 2.17237 17.9859C3.60961 18.9416 4.81933 19.2284 5.88672 19.4816C6.84058 19.7077 7.74189 19.9216 8.63131 20.5593C8.81374 20.69 9.03456 20.7369 9.23669 20.6858C10.7175 20.3181 11.8671 19.3389 12.9792 18.3917C13.7767 17.7126 14.5298 17.0713 15.3744 16.6724C15.6104 16.5611 15.7229 16.2986 15.6362 16.0619C14.7812 13.7253 14.2122 11.0499 14.0074 10.0082L14.0074 10.0081ZM11.9344 15.6222C11.8867 15.6721 11.8228 15.6973 11.7588 15.6973C11.6982 15.6973 11.6377 15.6749 11.5908 15.6299C11.4938 15.5367 11.4903 15.3827 11.5833 15.2859C12.4737 14.356 12.4907 13.2964 12.4911 13.2858C12.4917 13.1521 12.6007 13.0438 12.7342 13.0438H12.7349C12.8689 13.0443 12.9774 13.1524 12.9774 13.2865C12.9771 13.3375 12.9654 14.5456 11.9344 15.6222L11.9344 15.6222Z" fill="#1A1815"/>
<path d="M7.41065 7.28251C6.4097 7.89374 5.78899 8.28927 5.29027 8.60657C4.67003 9.00164 4.22207 9.28706 3.45347 9.72536C3.11933 9.91597 2.87216 10.2461 2.77534 10.6303C2.56954 11.4468 2.52064 11.9991 2.4462 12.835C2.41065 13.2336 2.36959 13.6968 2.30249 14.2796C3.08112 13.9348 5.02957 13.1503 8.60702 12.1616C8.76458 12.1179 8.88909 12.0019 8.94 11.8505C9.16565 11.178 9.69675 9.86311 10.7714 8.3713C9.81725 8.06403 8.83416 7.74371 7.90299 7.28823C7.73324 7.20578 7.54013 7.20311 7.41046 7.28256L7.41065 7.28251Z" fill="#1A1815"/>
<path d="M22.5928 12.8602C21.6054 11.2464 20.7328 10.8602 19.963 10.5194C18.5608 9.8985 17.7435 9.30979 17.449 4.66393C17.2821 4.69263 17.1166 4.73085 16.955 4.78844C14.9126 5.51764 12.9591 7.63221 12.3173 8.3761C12.9359 8.60009 13.5034 8.84376 13.9735 9.14786C14.2363 9.31793 14.4225 9.59718 14.4848 9.9138C14.6874 10.9443 15.25 13.5902 16.0928 15.894C16.2316 16.2734 16.1158 16.6817 15.8274 16.943C16.248 17.4826 16.9352 18.3511 17.5818 18.3511H22.2032C22.9515 18.3362 23.5772 17.9618 23.9603 17.2974C24.4683 16.4154 24.6678 15.3589 24.8707 14.1467C24.8158 14.15 24.7603 14.1545 24.7063 14.1545C23.8391 14.1544 23.1152 13.7136 22.5931 12.8598L22.5928 12.8602Z" fill="#1A1815"/>
<path d="M10.9968 7.93326C11.2777 8.02372 11.5548 8.11268 11.8245 8.20365C12.326 7.60109 14.4576 5.1641 16.792 4.3309C17.0489 4.23944 17.3134 4.18102 17.5805 4.15215C17.3949 3.85472 17.2726 3.6192 17.1694 3.41957C17.1073 3.29973 17.0522 3.19208 16.9922 3.09093C16.9436 3.00865 16.9024 2.93404 16.8651 2.86645C16.6615 2.49641 16.6131 2.40896 15.864 2.28445L15.763 2.26792C13.9748 1.97066 13.6525 1.91742 11.4889 1.81159C11.2578 1.79873 10.9687 1.94929 10.8282 2.15074C9.56866 3.95485 8.50751 5.5645 8.27832 6.92432C9.15724 7.33674 10.0904 7.64185 10.9967 7.93326L10.9968 7.93326ZM9.92072 5.73593C9.94609 5.72224 12.4744 4.3626 13.5543 3.35601C13.6522 3.26438 13.8065 3.26973 13.8979 3.3682C13.9894 3.46617 13.9841 3.62023 13.8858 3.71186C12.7597 4.76169 10.2564 6.10814 10.1502 6.16505C10.1137 6.18458 10.0743 6.19376 10.0357 6.19376C9.94892 6.19376 9.86496 6.14736 9.82124 6.06557C9.75781 5.94674 9.80221 5.79952 9.92071 5.73594L9.92072 5.73593Z" fill="#1A1815"/>
<path d="M21.7942 4.03903C21.3085 4.37685 20.8268 4.83835 20.5632 5.10441C21.7748 5.85715 23.4435 6.97509 24.9356 8.25595L26.8116 6.8995C26.7926 6.85377 26.7742 6.80804 26.7557 6.76164C26.4534 6.00621 26.0397 4.97155 22.6409 3.91069C22.3547 3.82123 22.0383 3.8693 21.7942 4.03904L21.7942 4.03903Z" fill="#1A1815"/>
<path d="M15.9438 1.80482C16.8879 1.96172 17.031 2.1595 17.2913 2.63182C17.3263 2.69558 17.3647 2.76552 17.4108 2.84296C17.4752 2.95162 17.5351 3.06695 17.6017 3.19613C17.7272 3.43882 17.8826 3.7381 18.1537 4.14132C18.727 4.17387 19.2968 4.34094 19.8144 4.64872C19.9154 4.70847 20.0244 4.77423 20.1377 4.84283C20.3143 4.6609 20.6426 4.33526 21.0234 4.01831C18.8169 3.8988 18.082 1.86973 18.0743 1.84653C18.0306 1.71951 18.0979 1.58115 18.2249 1.53741C18.3524 1.49419 18.4903 1.56095 18.534 1.6878C18.5664 1.78026 19.326 3.8559 21.7685 3.50173C22.0866 3.36453 22.4499 3.341 22.7859 3.44632C23.288 3.60288 23.7274 3.76027 24.1162 3.91718C23.9783 3.56517 23.8747 3.22251 23.804 2.95862C23.7036 2.58375 23.4704 2.24959 23.1471 2.01762C21.8454 1.08345 20.1957 0.42433 19.3281 0.114723C18.8397 -0.059693 18.3046 -0.0341587 17.86 0.183989C16.8569 0.676687 16.0791 1.36166 15.6749 1.7601C15.7306 1.76928 15.784 1.77813 15.8429 1.78814L15.9438 1.80482Z" fill="#1A1815"/>
<path d="M2.04824 11.9095C2.10048 11.4653 2.17125 11.0368 2.30344 10.512C2.43229 9.99998 2.76362 9.55933 3.2121 9.30347C3.97052 8.87085 4.41434 8.58812 5.02872 8.19673C5.52928 7.8776 6.15217 7.48121 7.15697 6.8675C7.34541 6.75217 7.57991 6.71579 7.81241 6.75518C7.89754 6.31004 8.06094 5.84622 8.2811 5.36485C7.38364 5.38354 6.36987 5.20011 5.79804 5.0771C5.55436 5.02553 5.30667 5.06592 5.1017 5.1926C3.62024 6.10758 1.81933 7.80803 1.07441 8.57931C0.841579 8.82016 0.748445 9.15178 0.825056 9.46592C1.07058 10.4724 1.66124 11.3877 2.04832 11.9096L2.04824 11.9095ZM4.92269 6.43352C4.93136 6.43302 5.79776 6.39947 6.31417 6.191C6.43901 6.14059 6.58072 6.20101 6.63079 6.32552C6.6812 6.45004 6.62078 6.59191 6.49627 6.64198C5.90008 6.88282 4.97908 6.91821 4.94002 6.91971C4.93719 6.91988 4.93418 6.91988 4.93135 6.91988C4.80099 6.91988 4.69317 6.81656 4.68833 6.68537C4.68349 6.55101 4.78831 6.43835 4.92267 6.43351L4.92269 6.43352Z" fill="#1A1815"/>
<path d="M30.2672 9.28689C30.2416 8.91669 30.0086 8.59204 29.6737 8.46018C29.1145 8.23987 28.5082 8.13856 28.502 8.13739C27.6519 7.97933 27.2667 7.68622 27.0354 7.33807L25.3107 8.58505C25.4776 8.7346 25.6422 8.88548 25.8021 9.03835C26.203 9.42257 26.3447 10.0202 26.1628 10.5612C25.7597 11.7601 25.5744 12.8782 25.3952 13.9598C25.3738 14.0895 25.3524 14.2156 25.3313 14.3422C26.4615 14.9442 26.7969 14.8427 27.1201 14.7432C27.358 14.6698 27.5733 14.6044 27.7708 14.5444C28.8807 14.2071 29.3873 14.0531 30.1028 13.6372C30.3331 13.5031 30.472 13.2568 30.4655 12.9939C30.4363 11.8379 30.3284 10.1752 30.2672 9.28688V9.28689ZM29.7094 12.6451C29.6621 12.7132 29.5864 12.7499 29.5092 12.7499C29.4615 12.7499 29.4131 12.7357 29.3711 12.7066C27.0397 11.0913 27.0486 10.6332 27.4274 9.42795C27.4683 9.29809 27.5126 9.15773 27.5556 9.00251C27.5917 8.87316 27.7254 8.79704 27.855 8.83377C27.9844 8.86948 28.06 9.00384 28.0241 9.13319C27.9794 9.29376 27.9337 9.43947 27.8913 9.57415C27.5907 10.5304 27.4999 10.8188 29.6478 12.3067C29.7586 12.3832 29.786 12.5347 29.7094 12.6451H29.7094Z" fill="#1A1815"/>
<path d="M25.4654 9.38944C23.5112 7.51641 20.9302 5.87724 19.5659 5.06664C19.1021 4.79108 18.591 4.6447 18.0787 4.62368C18.0388 4.63236 17.999 4.62852 17.9602 4.61767C17.9512 4.61767 17.9425 4.61717 17.9335 4.61717C18.2224 9.21343 18.9972 9.55995 20.1597 10.0744C20.9532 10.4256 21.9407 10.8629 23.0075 12.6064C23.4882 13.3915 24.1438 13.7383 24.9536 13.6484C25.119 12.6568 25.316 11.5522 25.7014 10.4064C25.8234 10.043 25.7307 9.64396 25.4652 9.38926L25.4654 9.38944ZM22.7476 9.39261C22.7423 9.39261 22.7366 9.39245 22.7311 9.39211C21.2467 9.29264 20.6483 8.86267 20.6236 8.84434C20.5154 8.76472 20.4922 8.6125 20.5724 8.50435C20.6516 8.39703 20.8025 8.3735 20.9107 8.45161C20.9217 8.45945 21.4496 8.81863 22.7638 8.90675C22.8979 8.91576 22.9993 9.03176 22.9903 9.16579C22.9815 9.29414 22.8747 9.39261 22.7476 9.39261L22.7476 9.39261Z" fill="#1A1815"/>
<path d="M27.3134 19.83C26.7452 19.83 26.091 20.1737 26.0534 20.3312C26.0539 20.5148 26.4523 20.7058 27.3423 20.7058C27.7736 20.7058 28.0311 20.5657 28.0311 20.3309C28.0309 20.1229 27.8083 19.83 27.3134 19.83V19.83Z" fill="#1A1815"/>
<path d="M27.5539 17.865C27.5539 17.9993 27.4449 18.1082 27.3106 18.1082C27.1762 18.1082 27.0674 17.9993 27.0674 17.865C27.0674 17.7306 27.1762 17.6218 27.3106 17.6218C27.4449 17.6218 27.5539 17.7306 27.5539 17.865Z" fill="#1A1815"/>
<path d="M23.4191 20.4188C23.4191 20.6205 23.2013 20.7837 22.9326 20.7837C22.664 20.7837 22.4462 20.6205 22.4462 20.4188C22.4462 20.2174 22.664 20.0541 22.9326 20.0541C23.2013 20.0541 23.4191 20.2174 23.4191 20.4188" fill="#1A1815"/>
<path d="M19.1126 20.662C18.6476 20.662 18.0896 20.9604 18.0589 21.0919C18.0591 21.4928 18.7335 21.5132 18.8691 21.5132C19.2456 21.5132 19.5272 21.3205 19.5272 21.1483C19.5273 20.9265 19.4552 20.6619 19.1126 20.6619L19.1126 20.662Z" fill="#1A1815"/>
<path d="M15.1205 19.7591C15.0205 19.6795 14.902 19.6366 14.7841 19.6366C14.7755 19.6366 14.7666 19.6366 14.7581 19.6371C14.6423 19.6434 14.5426 19.692 14.4774 19.774C14.3355 19.9517 14.3938 20.2346 14.6066 20.4042C14.7139 20.4898 14.8422 20.5307 14.9689 20.5264C15.0847 20.52 15.1844 20.4715 15.2497 20.3895C15.391 20.2116 15.3333 19.9287 15.1205 19.7591L15.1205 19.7591Z" fill="#1A1815"/>
<path d="M2.24771 20.4983C1.65785 20.4983 1.52869 20.6165 1.52869 20.662C1.52869 20.7712 1.52869 21.0269 2.13671 21.0269C2.49505 21.0269 2.74473 20.8348 2.74473 20.662C2.74473 20.5814 2.74473 20.4983 2.24767 20.4983H2.24771Z" fill="#1A1815"/>
<path d="M1.04232 18.5948C1.04232 18.7291 0.933327 18.838 0.798969 18.838C0.66461 18.838 0.555786 18.7291 0.555786 18.5948C0.555786 18.4604 0.66461 18.3516 0.798969 18.3516C0.933327 18.3516 1.04232 18.4604 1.04232 18.5948Z" fill="#1A1815"/>
<path d="M4.93368 21.7567C4.93368 21.891 4.82468 22 4.69049 22C4.55613 22 4.44714 21.891 4.44714 21.7567C4.44714 21.6225 4.55613 21.5135 4.69049 21.5135C4.82468 21.5135 4.93368 21.6225 4.93368 21.7567Z" fill="#1A1815"/>
</svg>
