<svg width="18" height="22" viewBox="0 0 18 22" fill="none" xmlns="http://www.w3.org/2000/svg">
<path d="M3.97197 19.7839C3.6045 18.6803 3.5269 17.7096 3.72594 16.7551C3.93541 15.7465 4.45083 14.9052 4.82015 14.3605C5.32605 13.6138 5.72636 12.816 6.01155 11.9887C6.09008 11.7591 6.15742 11.5263 6.22755 11.2827L6.33798 10.9059C6.38107 10.7609 6.5053 10.6552 6.65509 10.6361C6.80842 10.6109 6.95243 10.6871 7.03096 10.8161C7.40235 11.4222 7.62301 12.0684 7.69688 12.7684C8.4255 11.4511 8.72376 9.96049 8.60772 8.24716C8.5984 8.09755 8.676 7.95578 8.80788 7.88472C8.86496 7.85338 8.92763 7.83846 8.99031 7.83846C9.07164 7.83846 9.15297 7.8642 9.22031 7.91512C11.1673 9.37962 12.4739 11.3688 13.1053 13.8274C13.6421 15.9209 13.585 17.8831 12.9266 19.7913C13.9544 19.1133 14.7755 18.4153 15.4647 17.6385C17.2622 15.6139 17.9057 13.2958 17.3764 10.7501C16.9124 8.51266 15.8576 6.49356 14.162 4.6043C14.2752 5.55397 13.1192 7.65119 12.979 7.61982C12.8406 7.59128 11.9868 5.17137 11.5761 4.35393C10.6848 2.58315 9.57563 1.27289 8.18482 0.348823C7.99679 0.224029 7.79943 0.112296 7.59182 0C7.6405 1.18113 7.41703 2.39549 6.91005 3.70684C6.27417 5.35471 2.86817 9.9883 2.86817 9.9883C2.86817 9.9883 2.635 7.59562 2.43485 6.92722C2.40407 7.03373 2.36844 7.14043 2.32722 7.24527C1.94183 8.21972 1.5061 9.16752 1.13095 9.96624C0.597835 11.0989 0.213565 12.0672 0.068634 13.1151C-0.165094 14.7822 0.196784 16.1883 1.17498 17.4139C1.98473 18.4284 2.99089 19.1804 3.97188 19.7836L3.97197 19.7839Z" fill="#449CCC"/>
<path d="M5.17441 21.1162H6.05636V22H5.17441V21.1162Z" fill="#449CCC"/>
<path d="M11.0151 21.1162H11.8979V22H11.0151V21.1162Z" fill="#449CCC"/>
<path d="M10.6314 20.3506C10.4202 20.3506 10.2481 20.5222 10.2481 20.7335L9.74386 20.7333C9.74386 20.522 9.57188 20.3504 9.36053 20.3504H7.7108C7.49965 20.3504 7.32747 20.522 7.32747 20.7333L6.82326 20.7334C6.82326 20.522 6.65128 20.3504 6.43993 20.3504H5.01106L4.99688 20.3166C4.93514 20.1695 4.8734 20.0221 4.81725 19.8725C4.39456 18.76 4.28599 17.8193 4.47589 16.9116C4.61614 16.2358 4.91813 15.5816 5.45406 14.7905C5.99836 13.9877 6.42965 13.129 6.73538 12.2383C6.75142 12.1936 6.76634 12.1486 6.78127 12.1033C6.96184 12.6877 7.00381 13.3208 6.90849 14.0171C6.88498 14.1882 6.97956 14.3538 7.13848 14.4216C7.29667 14.4893 7.4819 14.4421 7.58841 14.3065C8.78544 12.7931 9.38123 11.0661 9.39802 9.04836C10.8672 10.3482 11.8398 11.9815 12.3626 14.0185C12.9375 16.257 12.7732 18.3308 11.8754 20.3506H10.6314Z" fill="#449CCC"/>
<path d="M8.09402 21.1162H8.97689V22H8.09402V21.1162Z" fill="#449CCC"/>
</svg>
