<svg width="22" height="22" viewBox="0 0 22 22" fill="none" xmlns="http://www.w3.org/2000/svg">
<path d="M6.39708 0.814038C6.39708 0.598173 6.48285 0.391003 6.63545 0.238374C6.78806 0.0857671 6.99506 2.44525e-06 7.21094 2.44525e-06H21.1857C21.4643 -0.000679595 21.7236 0.141356 21.873 0.376319C22.0224 0.611451 22.041 0.906586 21.9221 1.15845C21.8033 1.41029 21.5635 1.58353 21.2871 1.61765V5.91588C21.2534 5.91384 21.2199 5.91077 21.1857 5.91077H7.21093C7.17666 5.91077 7.14324 5.91384 7.10948 5.91588V1.61765C6.91322 1.59361 6.73248 1.49864 6.60117 1.35063C6.47005 1.20263 6.39741 1.01183 6.39707 0.814038H6.39708ZM21.1859 6.79068H7.21117C7.18184 6.79068 7.15251 6.79306 7.12318 6.79562C8.39909 8.38206 9.89757 10.6578 10.0101 12.7015H21.186C21.2202 12.7015 21.2543 12.7039 21.2886 12.7065V8.40913C21.5648 8.37452 21.8042 8.20094 21.9227 7.94893C22.0412 7.69708 22.0225 7.40212 21.8731 7.16714C21.7236 6.93235 21.4644 6.79032 21.186 6.79083L21.1859 6.79068ZM21.9999 14.3955C21.9999 14.1794 21.9143 13.9724 21.7615 13.8198C21.6089 13.667 21.4018 13.5813 21.1859 13.5814H9.98076C9.77376 15.3899 8.7045 16.9865 7.1109 17.8665V20.3819C6.83434 20.4155 6.59443 20.5887 6.47526 20.8406C6.35608 21.0926 6.37432 21.3879 6.52369 21.6232C6.67306 21.8585 6.93257 22.0007 7.21119 22.0001H21.1859C21.4644 22.0006 21.7235 21.8587 21.8731 21.6238C22.0224 21.389 22.0412 21.0938 21.9227 20.842C21.804 20.5901 21.5648 20.4164 21.2886 20.3819V15.1997C21.4848 15.1755 21.6654 15.0804 21.7964 14.9322C21.9275 14.7842 21.9998 14.5932 22 14.3956L21.9999 14.3955ZM0 12.947C0 10.1975 3.69751 6.2261 4.31167 5.68221C4.36078 5.63839 4.43478 5.63839 4.48372 5.68221C5.09788 6.22597 8.79539 10.1979 8.79539 12.95H8.79556C8.79335 14.5201 7.95442 15.9701 6.59409 16.7543C5.23394 17.5385 3.55867 17.5378 2.19891 16.7527C0.839283 15.9677 0.00101728 14.5173 1.33211e-05 12.9473L0 12.947ZM1.02256 13.5045C1.13919 14.2098 1.47373 14.8608 1.97912 15.3663C2.48433 15.8717 3.13533 16.2064 3.84042 16.3234C3.97956 16.3457 4.12142 16.306 4.22867 16.2146C4.33575 16.1232 4.39748 15.9894 4.39748 15.8485C4.40004 15.6083 4.22935 15.4009 3.99303 15.3573C3.49192 15.2729 3.02966 15.0342 2.67037 14.6747C2.31108 14.3153 2.07275 13.8529 1.98851 13.3517C1.94503 13.1154 1.73752 12.9447 1.49726 12.9474C1.35642 12.9474 1.22257 13.0092 1.13135 13.1164C1.03995 13.2237 1.00023 13.3655 1.02256 13.5045L1.02256 13.5045Z" fill="#B03221"/>
</svg>
